<?xml version="1.0" encoding="UTF-8"?>
<svg xmlns="http://www.w3.org/2000/svg" viewBox="0 0 64 64" width="64" height="64" role="img" aria-label="Medication icon">
  <!-- Bottle cap -->
  <rect x="16" y="4" width="32" height="10" rx="4" fill="#000" />
  <!-- Bottle neck small gap -->
  <rect x="22" y="14" width="20" height="2" fill="#000" />
  <!-- Bottle body -->
  <path d="M12 16 L12 44 A6 6 0 0 0 18 50 L46 50 A6 6 0 0 0 52 44 L52 24 L40 12 L24 12 L14 22 Z" fill="#000" />
  <!-- Label with cross -->
  <rect x="20" y="26" width="24" height="16" rx="3" fill="#fff" />
  <rect x="30" y="30" width="4" height="8" fill="#000" />
  <rect x="26" y="34" width="12" height="4" fill="#000" />
  <!-- Capsule (pill) -->
  <g transform="translate(28,34) rotate(20 8 8)">
    <rect x="10" y="20" width="28" height="12" rx="6" fill="#000" />
    <rect x="10" y="20" width="14" height="12" rx="6" fill="#fff" />
  </g>
</svg>
